<mxfile host="app.diagrams.net" modified="2024-03-02T12:02:24.713Z" agent="Mozilla/5.0 (iPhone; CPU iPhone OS 15_6_1 like Mac OS X) AppleWebKit/605.1.15 (KHTML, like Gecko) FxiOS/123.1  Mobile/15E148 Safari/605.1.15" version="24.0.0" etag="OpoaQbjj4rF3Ez9kL22E" type="github">
  <diagram name="ページ1" id="LqBqiXcxqzudLNC_rFas">
    <mxGraphModel>
      <root>
        <mxCell id="0" />
        <mxCell id="1" parent="0" />
      </root>
    </mxGraphModel>
  </diagram>
</mxfile>
